<?xml version="1.0" encoding="utf-8"?>
<!-- Generator: Adobe Illustrator 19.1.0, SVG Export Plug-In . SVG Version: 6.00 Build 0)  -->
<svg version="1.1" id="Layer_1" xmlns="http://www.w3.org/2000/svg" xmlns:xlink="http://www.w3.org/1999/xlink" x="0px" y="0px"
	 viewBox="-304 151.8 97.3 97.2" style="enable-background:new -304 151.8 97.3 97.2;" xml:space="preserve">
<style type="text/css">
	.st0{fill:#E22F81;}
	.st1{display:none;}
	.st2{display:inline;fill:#FFFFFF;}
	.st3{display:none;fill:#FFFFFF;enable-background:new    ;}
	.st4{font-family:'TVOKids-Bold';}
	.st5{font-size:19px;}
	.st6{fill:#FFFFFF;}
</style>
<polygon class="st0" points="-277.4,162.3 -274.3,155.3 -267.2,158 -262.6,152.1 -256.4,156.4 -250.3,151.8 -245.4,157.6 
	-238.4,154.6 -235.1,161.4 -227.6,160.2 -226.1,167.7 -218.5,168.4 -218.9,176 -211.8,178.6 -214,185.8 -207.8,190.1 -211.7,196.6 
	-206.7,202.3 -212.2,207.6 -208.8,214.4 -215.4,218.1 -213.7,225.5 -221.1,227.5 -221.3,235.1 -228.9,235.2 -231.1,242.5 
	-238.4,240.7 -242.3,247.2 -249,243.7 -254.4,249 -260,243.9 -266.6,247.7 -270.7,241.4 -278,243.5 -280.5,236.3 -288,236.5 
	-288.6,228.9 -296,227.2 -294.7,219.8 -301.5,216.3 -298.3,209.4 -304,204.3 -299.3,198.4 -303.5,192.1 -297.4,187.6 -300,180.4 
	-293,177.5 -293.6,170 -286.1,168.9 -284.9,161.4 "/>
<g class="st1">
	<path class="st2" d="M-271.4,191.4c-0.2-0.3-0.2-0.6-0.1-0.9s0.3-0.5,0.6-0.7c0.3-0.2,0.6-0.2,0.8-0.1c0.3,0.1,0.5,0.2,0.7,0.5
		l5.1,8.8c0.2,0.3,0.2,0.5,0.2,0.8c-0.1,0.3-0.2,0.5-0.5,0.7c-0.3,0.2-0.4,0.3-0.6,0.3c-0.2,0-0.4,0-0.6-0.1l-8.2-3.6l3.3,5.8
		c0.2,0.3,0.2,0.6,0.1,0.9s-0.3,0.5-0.6,0.7c-0.3,0.2-0.6,0.2-0.8,0.2c-0.3-0.1-0.5-0.2-0.7-0.5l-5-8.7c-0.2-0.3-0.2-0.6-0.2-0.9
		s0.2-0.6,0.6-0.8c0.2-0.1,0.3-0.1,0.5-0.2c0.2,0,0.4,0,0.6,0.1l8.4,3.9L-271.4,191.4z"/>
	<path class="st2" d="M-262,194.4c0.4,0.6,1,0.9,1.5,1c0.6,0.1,1.1,0,1.7-0.3c0.2-0.1,0.4-0.3,0.6-0.4c0.2-0.2,0.3-0.3,0.4-0.5
		c0.1-0.2,0.2-0.3,0.3-0.5c0.1-0.1,0.1-0.3,0.2-0.4c0.1-0.2,0.3-0.3,0.3-0.4c0.2-0.1,0.5-0.2,0.8-0.1c0.3,0.1,0.5,0.2,0.6,0.5
		c0.1,0.2,0.1,0.3,0.1,0.5s0,0.3-0.1,0.5c-0.2,0.4-0.4,0.9-0.8,1.3c-0.4,0.5-0.9,0.9-1.5,1.2s-1.2,0.5-1.8,0.6
		c-0.6,0.1-1.2,0-1.7-0.1c-0.6-0.2-1.1-0.4-1.5-0.8c-0.5-0.4-0.9-0.9-1.2-1.5c-0.3-0.6-0.5-1.2-0.6-1.8c-0.1-0.6-0.1-1.2,0.1-1.8
		c0.1-0.6,0.4-1.1,0.7-1.6c0.4-0.5,0.8-0.9,1.4-1.2c0.5-0.3,1.1-0.5,1.6-0.6c0.6-0.1,1.1,0,1.6,0.1c0.5,0.1,0.9,0.4,1.4,0.7
		c0.4,0.3,0.7,0.7,1,1.1c0.2,0.3,0.3,0.6,0.3,0.9s-0.2,0.5-0.5,0.7L-262,194.4z M-261.7,190.5c-0.5,0.3-0.8,0.7-1,1.2
		c-0.2,0.5-0.2,1,0.1,1.7l3.7-2.1c-0.1-0.2-0.3-0.4-0.4-0.6c-0.2-0.2-0.4-0.3-0.7-0.4c-0.2-0.1-0.5-0.1-0.8-0.1
		C-261.2,190.2-261.5,190.3-261.7,190.5z"/>
	<path class="st2" d="M-248.7,181.8c-0.1-0.3,0-0.5,0-0.7c0.1-0.2,0.2-0.4,0.5-0.5c0.3-0.2,0.6-0.2,0.9-0.2c0.3,0.1,0.5,0.3,0.7,0.6
		c0,0.1,0.1,0.1,0.1,0.2c0,0.1,0.1,0.2,0.1,0.4l1.1,7c0,0.3,0,0.5-0.1,0.7c-0.1,0.2-0.2,0.4-0.4,0.5s-0.4,0.2-0.7,0.2
		c-0.2,0-0.5-0.1-0.7-0.3l-3.3-3l0.9,4.3c0.1,0.3,0,0.6-0.1,0.8c-0.1,0.2-0.3,0.4-0.5,0.5s-0.5,0.2-0.7,0.2c-0.2,0-0.4-0.1-0.7-0.3
		l-5.4-4.6c-0.2-0.2-0.3-0.3-0.4-0.4c-0.2-0.4-0.2-0.7-0.1-0.9c0.1-0.3,0.3-0.5,0.6-0.6c0.4-0.3,0.8-0.2,1.2,0.1l3.9,3.6l-0.9-4.1
		c-0.1-0.3-0.1-0.6,0-0.8c0.1-0.2,0.3-0.4,0.4-0.5c0.2-0.1,0.4-0.2,0.6-0.2s0.5,0.1,0.7,0.3l3.2,2.9L-248.7,181.8z"/>
	<path class="st2" d="M-271.1,222.8c0.3-0.2,0.5-0.2,0.8-0.2c0.2,0.1,0.5,0.2,0.6,0.5c0.1,0.3,0.2,0.5,0.1,0.8
		c-0.1,0.2-0.2,0.5-0.5,0.6l-5.7,3.3c-0.3,0.2-0.6,0.2-0.9,0.1c-0.3-0.1-0.5-0.3-0.7-0.6l-5.1-8.8c-0.2-0.3-0.2-0.6-0.2-0.9
		c0.1-0.3,0.3-0.5,0.6-0.7l5.7-3.3c0.3-0.2,0.5-0.2,0.8-0.2c0.3,0.1,0.5,0.2,0.6,0.5c0.1,0.3,0.2,0.5,0.1,0.8s-0.3,0.5-0.5,0.6
		l-4.6,2.9l1.6,2.7l3-1.7c0.3-0.2,0.6-0.2,0.8-0.2c0.3,0,0.5,0.2,0.6,0.5c0.1,0.3,0.2,0.5,0.1,0.8c-0.1,0.3-0.3,0.5-0.6,0.6l-3,1.7
		l1.7,2.9L-271.1,222.8z"/>
	<path class="st2" d="M-264.5,224c0.2,0.3,0.2,0.5,0.1,0.8s-0.3,0.5-0.5,0.6c-0.3,0.2-0.5,0.2-0.8,0.1c-0.3-0.1-0.5-0.2-0.7-0.5
		l-5.3-9.2c-0.1-0.2-0.1-0.4-0.1-0.7c0.1-0.3,0.2-0.5,0.6-0.7c0.3-0.2,0.6-0.2,0.9-0.2c0.2,0.1,0.4,0.2,0.5,0.4l0.4,0.6
		c0-0.6,0.1-1.1,0.3-1.7c0.2-0.5,0.7-1,1.3-1.4c0.5-0.3,1.1-0.5,1.6-0.5c0.6,0,1.1,0,1.6,0.2c0.5,0.2,1,0.5,1.5,0.9s0.9,0.9,1.2,1.5
		c0.3,0.6,0.6,1.2,0.7,1.8c0.1,0.6,0.1,1.2,0,1.7c-0.1,0.5-0.3,1.1-0.7,1.5c-0.3,0.5-0.8,0.9-1.3,1.2c-0.6,0.3-1.2,0.5-1.8,0.4
		c-0.6-0.1-1.1-0.3-1.6-0.6L-264.5,224z M-264.5,219.2c0.3-0.2,0.6-0.4,0.8-0.7c0.2-0.3,0.3-0.6,0.3-0.9s0-0.7,0-1
		c-0.1-0.3-0.2-0.7-0.4-1c-0.2-0.3-0.4-0.6-0.7-0.9c-0.3-0.2-0.5-0.4-0.8-0.5c-0.3-0.1-0.6-0.2-0.9-0.1c-0.3,0-0.7,0.1-1,0.3
		c-0.3,0.2-0.6,0.4-0.8,0.7s-0.3,0.6-0.4,0.9c-0.1,0.3,0,0.7,0,1c0.1,0.3,0.2,0.7,0.4,1c0.2,0.3,0.4,0.6,0.7,0.9
		c0.3,0.2,0.5,0.4,0.9,0.5c0.3,0.1,0.6,0.2,0.9,0.1C-265.2,219.5-264.8,219.4-264.5,219.2z"/>
	<path class="st2" d="M-263.2,206.2c0.3-0.2,0.6-0.2,0.9-0.2c0.3,0.1,0.5,0.3,0.7,0.6c0.2,0.4,0.3,0.7,0.1,0.9
		c-0.1,0.3-0.3,0.5-0.6,0.7c-0.3,0.2-0.6,0.2-0.9,0.2c-0.3-0.1-0.5-0.2-0.7-0.6c-0.2-0.3-0.2-0.6-0.2-0.9
		C-263.7,206.6-263.5,206.3-263.2,206.2z M-261.9,210.5c-0.1-0.3-0.2-0.5-0.1-0.8c0.1-0.3,0.2-0.5,0.5-0.7c0.3-0.2,0.6-0.2,0.8-0.1
		c0.3,0.1,0.5,0.2,0.6,0.5l2.6,4.5c0.1,0.2,0.2,0.4,0.4,0.5c0.1,0.1,0.3,0.1,0.4,0c0.2-0.1,0.3-0.1,0.5,0c0.2,0.1,0.3,0.3,0.4,0.4
		c0.2,0.3,0.2,0.6,0.1,0.9c-0.1,0.3-0.3,0.5-0.7,0.7c-0.5,0.3-1,0.4-1.6,0.2c-0.5-0.2-1-0.7-1.5-1.5L-261.9,210.5z"/>
	<path class="st2" d="M-257.4,209.5c-0.2-0.3-0.3-0.7-0.3-1.1c0-0.4,0-0.7,0.2-1.1c0.1-0.4,0.4-0.7,0.7-1c0.3-0.3,0.7-0.6,1.1-0.9
		c0.6-0.4,1.2-0.6,1.7-0.6c0.5-0.1,0.9,0,1.3,0.1c0.2,0,0.3,0.1,0.4,0.2c0.1,0.1,0.2,0.2,0.3,0.3c0.1,0.2,0.1,0.4,0.1,0.7
		s-0.1,0.5-0.4,0.6c-0.2,0.1-0.3,0.1-0.4,0.1c-0.1,0-0.3,0-0.4,0c-0.2,0-0.4,0-0.7,0s-0.6,0.1-0.9,0.3c-0.3,0.2-0.5,0.4-0.6,0.6
		s-0.1,0.4,0,0.7c0.1,0.2,0.3,0.3,0.6,0.3c0.3,0,0.6,0,0.9-0.1c0.4-0.1,0.8-0.1,1.2-0.2c0.4-0.1,0.8-0.1,1.2-0.1
		c0.4,0,0.8,0.1,1.1,0.3c0.4,0.2,0.7,0.5,0.9,0.9c0.2,0.4,0.3,0.7,0.4,1.1c0,0.4,0,0.8-0.2,1.2c-0.1,0.4-0.4,0.8-0.7,1.1
		c-0.3,0.3-0.7,0.7-1.2,0.9c-0.6,0.4-1.2,0.6-1.8,0.7c-0.5,0.1-1.1,0.1-1.5-0.1c-0.2,0-0.3-0.1-0.4-0.2c-0.1-0.1-0.2-0.2-0.3-0.3
		c-0.1-0.2-0.1-0.4-0.1-0.7c0-0.3,0.2-0.5,0.4-0.6c0.1-0.1,0.3-0.1,0.4-0.1c0.1,0,0.3,0,0.4,0c0.3,0,0.6,0.1,0.9,0
		c0.3,0,0.6-0.1,1-0.3c0.4-0.2,0.6-0.4,0.8-0.7c0.1-0.2,0.1-0.5,0-0.7c-0.1-0.2-0.3-0.3-0.6-0.4c-0.3,0-0.6,0-1,0.1
		c-0.4,0.1-0.8,0.1-1.2,0.2c-0.4,0.1-0.8,0.1-1.2,0.1c-0.4,0-0.8-0.1-1.2-0.3C-256.8,210.3-257.1,210-257.4,209.5z"/>
	<path class="st2" d="M-247.5,200.7c0.6-0.3,1.2-0.5,1.8-0.6c0.6-0.1,1.2,0,1.8,0.1c0.6,0.2,1.1,0.4,1.6,0.8
		c0.5,0.4,0.9,0.9,1.2,1.5c0.3,0.6,0.5,1.2,0.6,1.8c0.1,0.6,0.1,1.2-0.1,1.8c-0.1,0.6-0.4,1.1-0.8,1.6c-0.4,0.5-0.8,0.9-1.4,1.2
		c-0.6,0.3-1.2,0.5-1.8,0.6c-0.6,0.1-1.2,0-1.8-0.1c-0.6-0.2-1.1-0.4-1.6-0.8c-0.5-0.4-0.9-0.9-1.2-1.4c-0.3-0.6-0.6-1.2-0.6-1.8
		c-0.1-0.6-0.1-1.2,0.1-1.8c0.1-0.6,0.4-1.1,0.8-1.6C-248.5,201.5-248.1,201-247.5,200.7z M-246.5,202.4c-0.3,0.2-0.6,0.4-0.8,0.7
		c-0.2,0.3-0.3,0.6-0.3,0.9s0,0.6,0,1c0.1,0.3,0.2,0.7,0.4,1c0.2,0.3,0.4,0.6,0.7,0.8c0.3,0.2,0.5,0.4,0.8,0.5s0.6,0.2,0.9,0.2
		c0.3,0,0.7-0.1,1-0.3c0.3-0.2,0.6-0.4,0.8-0.7c0.2-0.3,0.3-0.6,0.3-0.9s0-0.6,0-1c-0.1-0.3-0.2-0.7-0.4-1c-0.2-0.3-0.4-0.6-0.7-0.9
		c-0.3-0.2-0.5-0.4-0.8-0.5c-0.3-0.1-0.6-0.2-0.9-0.2C-245.8,202.1-246.1,202.2-246.5,202.4z"/>
	<path class="st2" d="M-237.2,192.4c-0.2-0.3-0.2-0.5-0.1-0.8c0.1-0.3,0.3-0.5,0.5-0.7c0.3-0.2,0.5-0.2,0.8-0.1
		c0.3,0.1,0.5,0.2,0.7,0.5l5.1,8.8c0.2,0.4,0.3,0.7,0.2,0.9c-0.1,0.2-0.3,0.5-0.6,0.6c-0.3,0.2-0.6,0.2-0.9,0.1
		c-0.3-0.1-0.5-0.3-0.6-0.5l-0.4-0.6c0.1,0.7,0,1.3-0.3,1.9c-0.3,0.5-0.7,1-1.3,1.4c-0.5,0.3-1,0.4-1.5,0.5c-0.5,0.1-1.1,0-1.6-0.2
		c-0.5-0.2-1-0.4-1.5-0.8c-0.5-0.4-0.9-0.9-1.3-1.6c-0.4-0.6-0.6-1.3-0.7-1.9c-0.1-0.6-0.1-1.2,0-1.8c0.1-0.6,0.4-1,0.7-1.5
		c0.3-0.5,0.7-0.8,1.2-1.1c0.7-0.4,1.3-0.5,1.8-0.5c0.6,0.1,1.1,0.3,1.5,0.6L-237.2,192.4z M-234.5,201.9c0.3-0.2,0.5-0.4,0.7-0.6
		c0.2-0.3,0.3-0.5,0.4-0.9c0.1-0.3,0.1-0.6,0-1c-0.1-0.4-0.2-0.7-0.4-1.1c-0.4-0.7-1-1.2-1.6-1.4c-0.6-0.2-1.3-0.1-1.9,0.2
		c-0.6,0.4-1,0.9-1.1,1.5c-0.1,0.7,0,1.3,0.5,2.1c0.2,0.4,0.5,0.7,0.7,0.9c0.3,0.2,0.6,0.4,0.9,0.5c0.3,0.1,0.6,0.1,0.9,0.1
		C-235.1,202.2-234.7,202-234.5,201.9z"/>
	<path class="st2" d="M-228,195.6c0.4,0.6,1,0.9,1.5,1c0.6,0.1,1.1,0,1.7-0.3c0.2-0.1,0.4-0.3,0.6-0.4c0.2-0.2,0.3-0.3,0.4-0.5
		c0.1-0.2,0.2-0.3,0.3-0.5c0.1-0.1,0.1-0.3,0.2-0.4c0.1-0.2,0.3-0.3,0.3-0.4c0.2-0.1,0.5-0.2,0.8-0.1s0.5,0.2,0.6,0.5
		c0.1,0.2,0.1,0.3,0.1,0.5s0,0.3-0.1,0.5c-0.2,0.4-0.4,0.9-0.8,1.3c-0.4,0.5-0.9,0.9-1.5,1.2c-0.6,0.3-1.2,0.5-1.8,0.6
		c-0.6,0.1-1.2,0-1.7-0.1c-0.6-0.2-1.1-0.4-1.5-0.8c-0.5-0.4-0.9-0.9-1.2-1.5c-0.3-0.6-0.5-1.2-0.6-1.8c-0.1-0.6-0.1-1.2,0.1-1.8
		c0.1-0.6,0.4-1.1,0.7-1.6c0.4-0.5,0.8-0.9,1.4-1.2c0.5-0.3,1.1-0.5,1.6-0.6c0.5-0.1,1.1,0,1.6,0.1s0.9,0.4,1.4,0.7
		c0.4,0.3,0.7,0.7,1,1.1c0.2,0.3,0.3,0.6,0.3,0.9s-0.2,0.5-0.5,0.7L-228,195.6z M-227.7,191.6c-0.5,0.3-0.8,0.7-1,1.2
		s-0.2,1,0.1,1.7l3.7-2.1c-0.1-0.2-0.3-0.4-0.4-0.6c-0.2-0.2-0.4-0.3-0.7-0.4c-0.2-0.1-0.5-0.1-0.8-0.1S-227.4,191.4-227.7,191.6z"
		/>
</g>
<text transform="matrix(0.866 -0.5 0.5 0.866 -267.8413 214.6711)" class="st3 st4 st5">Play</text>
<g>
	<path class="st6" d="M-276.7,207.3c-0.3,0.3-0.7,0.3-1.1,0.1c-0.4-0.1-0.7-0.3-0.9-0.7l-3-5.2l-5-8.6c-0.1-0.3-0.3-0.7-0.1-1.1
		c0.1-0.4,0.3-0.7,0.7-1l4.7-2.7c0.9-0.4,1.7-0.9,2.6-1c0.9-0.1,1.7-0.1,2.6,0.1c0.9,0.1,1.6,0.6,2.3,1c0.7,0.4,1.3,1.1,1.9,2
		c0.4,0.9,0.7,1.6,0.9,2.6c0.1,0.9,0,1.7-0.3,2.6c-0.3,0.9-0.7,1.6-1.3,2.3c-0.6,0.7-1.3,1.3-2.1,1.9l-3.4,1.9l2.1,3.7
		c0.3,0.4,0.3,0.7,0.1,1.1C-276.3,206.8-276.3,207-276.7,207.3z M-279.7,198.9l3.4-1.9c0.4-0.3,0.9-0.6,1.3-1
		c0.3-0.4,0.6-0.9,0.7-1.3c0.1-0.4,0.1-0.9,0.1-1.4c0-0.4-0.1-0.9-0.4-1.4c-0.6-1-1.3-1.6-2.3-1.7c-1-0.1-2,0-3,0.6l-3.4,2
		L-279.7,198.9z"/>
	<path class="st6" d="M-263.4,198.5c-0.3-0.1-0.7-0.3-1.1-0.6c-0.4-0.3-0.9-0.7-1.3-1.4l-6.7-11.7c-0.1-0.3-0.3-0.7-0.1-1.1
		c0.1-0.4,0.3-0.7,0.7-1c0.4-0.3,0.7-0.3,1.1-0.1s0.7,0.4,0.9,0.7l6.9,11.7c0.1,0.3,0.3,0.4,0.3,0.4c0.1,0,0.1,0,0.3,0
		c0.4-0.3,0.7-0.3,1.1-0.1s0.7,0.3,1,0.7c0.1,0.3,0.3,0.7,0.1,1.1c-0.1,0.4-0.3,0.7-0.7,1c-0.1,0-0.3,0.1-0.4,0.1
		c-0.1,0.1-0.3,0.1-0.6,0.3c-0.1,0-0.4,0.1-0.7,0.1C-262.8,198.6-263.1,198.6-263.4,198.5z"/>
	<path class="st6" d="M-255.3,180.3c0.4-0.3,0.9-0.3,1.3-0.1s0.7,0.4,0.9,0.7l4.7,8.3c0.3,0.4,0.3,0.7,0.1,1.1s-0.4,0.7-0.9,1
		c-0.4,0.3-0.7,0.3-1.1,0.1c-0.4-0.1-0.7-0.3-0.9-0.7l-0.1-0.4c-0.1,1.6-1,2.7-2.4,3.6c-0.7,0.4-1.6,0.7-2.3,0.7s-1.4,0-2.1-0.3
		c-0.7-0.3-1.3-0.6-2-1.1c-0.6-0.6-1.1-1.1-1.6-1.9c-0.4-0.7-0.7-1.6-0.9-2.4c-0.1-0.9-0.1-1.6,0-2.3c0.1-0.7,0.4-1.4,0.9-2
		c0.4-0.6,1-1.1,1.7-1.6c0.7-0.4,1.6-0.7,2.3-0.7c0.7,0,1.4,0.1,2.1,0.4l-0.1-0.3c-0.1-0.3-0.3-0.7-0.1-1.1
		C-256,180.9-255.7,180.4-255.3,180.3z M-254.7,191c0.4-0.3,0.7-0.6,1-0.9s0.4-0.7,0.6-1.1c0.1-0.4,0.1-0.9,0.1-1.3
		c0-0.4-0.1-0.9-0.4-1.3s-0.6-0.7-0.9-1c-0.4-0.3-0.7-0.4-1.1-0.6c-0.4-0.1-0.9-0.1-1.3-0.1c-0.4,0-0.9,0.1-1.3,0.4
		c-0.4,0.3-0.7,0.6-1,0.9c-0.3,0.3-0.4,0.7-0.4,1.1c-0.1,0.4-0.1,0.9,0,1.3c0,0.4,0.1,0.9,0.4,1.3c0.3,0.4,0.6,0.7,0.9,1
		c0.3,0.3,0.7,0.4,1.1,0.6c0.4,0.1,0.7,0.1,1.1,0.1C-255.5,191.3-255.1,191.2-254.7,191z"/>
	<path class="st6" d="M-243.2,173.4c0.4-0.1,0.9,0,1.1,0.3c0.3,0.3,0.6,0.6,0.6,1l2.4,15c0.1,0.4,0,0.9-0.3,1.1s-0.6,0.6-1,0.6
		c-0.4,0-0.9,0-1.1-0.3s-0.6-0.6-0.6-0.9l-0.3-2l-0.3-2l-8.2-6.3c-0.4-0.3-0.6-0.6-0.6-1c0-0.4,0-0.7,0.3-1.1c0.3-0.4,0.7-0.6,1-0.6
		c0.4,0,0.7,0.1,1.1,0.3l5.7,4.3l-1.1-7c0-0.4,0-0.7,0.3-1.1C-244,173.7-243.7,173.6-243.2,173.4z"/>
	<path class="st6" d="M-253.4,223.5c-0.4,0.3-0.9,0.3-1.4,0.1l-14.2-6l5.7,9.9c0.1,0.3,0.3,0.7,0.1,1.1c-0.1,0.4-0.3,0.7-0.7,1
		c-0.1,0.1-0.3,0.1-0.6,0.1c-0.1,0-0.4,0-0.6,0c-0.1,0-0.4-0.1-0.6-0.3c-0.1-0.1-0.3-0.3-0.4-0.4l-7.9-13.7
		c-0.1-0.3-0.3-0.6-0.3-0.9c0-0.3,0.1-0.6,0.3-0.9c0.6-0.6,1.1-0.7,1.9-0.4l14,5.9l-5.7-9.7c-0.3-0.4-0.3-0.7-0.1-1.1
		c0.1-0.4,0.3-0.7,0.7-0.9c0.4-0.3,0.7-0.3,1.1-0.1s0.7,0.3,0.9,0.7l7.9,13.7c0.3,0.4,0.3,0.7,0.1,1.1
		C-253.3,223.2-253,223.4-253.4,223.5z"/>
	<path class="st6" d="M-244.8,218.5c-0.7,0.4-1.6,0.7-2.3,0.7c-0.9,0.1-1.6,0-2.4-0.1c-0.7-0.1-1.4-0.6-2.1-1
		c-0.7-0.4-1.1-1.1-1.6-1.9c-0.4-0.7-0.7-1.6-0.9-2.4c-0.1-0.9,0-1.6,0.1-2.4c0.1-0.7,0.6-1.4,1-2.1c0.4-0.7,1.1-1.1,1.9-1.6
		c0.7-0.4,1.6-0.7,2.4-0.9c0.9-0.1,1.7,0,2.4,0.1c0.7,0.1,1.6,0.6,2.1,1.1c0.7,0.6,1.3,1.1,1.7,1.9c0.4,0.7,0.7,1.6,0.7,2.3
		c0.1,0.9,0,1.6-0.1,2.4c-0.1,0.7-0.6,1.4-1.1,2.1C-243.5,217.5-244.1,218.1-244.8,218.5z M-249.7,210.2c-0.4,0.3-0.7,0.6-1,0.9
		c-0.3,0.3-0.4,0.7-0.6,1.1c-0.1,0.4-0.1,0.9,0,1.3c0,0.4,0.1,0.9,0.4,1.3c0.3,0.4,0.6,0.7,0.9,1c0.3,0.3,0.7,0.4,1.1,0.6
		c0.4,0.1,0.7,0.1,1.1,0.1c0.4,0,0.9-0.1,1.3-0.4c0.9-0.4,1.4-1.1,1.6-2c0.3-0.9,0.1-1.6-0.3-2.4c-0.3-0.4-0.4-0.7-0.9-1
		c-0.3-0.3-0.7-0.4-1.1-0.6c-0.4-0.1-0.9-0.1-1.3-0.1C-248.8,209.9-249.3,210.1-249.7,210.2z"/>
	<path class="st6" d="M-237.4,199.7c0.3-0.1,0.4-0.3,0.7-0.3c0.1,0,0.4,0,0.6,0c0.1,0,0.3,0.1,0.4,0.3l5,4l-1-6.3
		c0-0.4,0.1-0.9,0.3-1.1s0.6-0.6,1-0.6s0.9,0,1.1,0.3s0.6,0.6,0.6,0.9l1.4,10.2c0.1,0.3,0,0.7-0.1,1s-0.3,0.4-0.6,0.6
		c-0.3,0.1-0.6,0.3-0.9,0.1c-0.3,0-0.7-0.1-0.9-0.3l-5-4l0.9,6.4c0,0.4,0,0.7-0.1,1c-0.1,0.3-0.3,0.4-0.6,0.6s-0.6,0.1-0.9,0.1
		c-0.3,0-0.6-0.1-0.9-0.3l-7.9-6.4c-0.1-0.1-0.3-0.3-0.4-0.4c-0.1-0.1-0.1-0.4-0.1-0.6s0-0.4,0-0.6s0.1-0.4,0.3-0.6
		c0.3-0.4,0.6-0.6,1-0.6c0.3,0,0.7,0,1,0.3l5,4l-0.9-6.3c0-0.1,0-0.3,0-0.6c0-0.1,0.1-0.3,0.3-0.4S-237.7,199.9-237.4,199.7z"/>
</g>
</svg>
